<svg xmlns="http://www.w3.org/2000/svg" width="30" height="30" viewBox="0 0 200 200">
    <defs>
        <style>
            .cls-1 {
                fill: #000;
                fill-rule: evenodd;
            }

        </style>
    </defs>
    <path id="STARY_1" data-name="STARY 1" class="cls-1" d="M95.806,11c33.137-.165,20.053,38.989,42.591,48,5.423,2.168,13.085.2,19.73,1.255,14.629,2.326,30.249,3.045,32.57,17.569,3.879,24.277-30.79,32.6-34.762,48.314C151.609,143.25,178.9,178.682,151.863,187c-22.988,7.073-34.294-16.681-51.047-19.451-19.028-3.146-31.787,33.1-57.31,17.569-20.549-12.507,5.865-41.453,0-60.549-4.67-15.207-31.433-19.026-35.075-39.53C4.816,64.69,24.818,62.622,39.748,60.255,49.011,58.786,59.1,61.726,64.8,57.118c12.119-9.791,10.823-33.5,23.488-42.98Z" />
</svg>
